
<svg xmlns="http://www.w3.org/2000/svg" xmlns:xlink="http://www.w3.org/1999/xlink" version="1.1" viewBox="0 0 434.317 434.317" xml:space="preserve" width="100%" height="100%" fill="#000000">
<g>
  <g>
    <g>
      <g>
        <path style="fill:#19363C;" d="M402.039,384.767c2.22,0,3.97,1.92,3.74,4.13c-2.07,19.9-18.89,35.42-39.33,35.42H68.069 c18.03,0,33.23-12.05,38.01-28.54c1.87-6.46,7.62-11.01,14.35-11.01h206.45H402.039z"/>
        <path style="fill:#FFD166;" d="M403.079,20.787l-0.03,0.07c-77.04-14.81-173.77,47.27-229.91,153.36 c-17.65,33.34-29.46,67.55-35.61,100.51c-0.01,0.1-0.03,0.19-0.05,0.28c-0.02-0.08-0.04-0.16-0.06-0.23 c-4.66-16.26-7.38-33.36-7.91-51.03c-1.88-62.57,24.14-119.51,66.81-158.84c35.44-32.69,82.37-53.25,134.35-54.81 C355.999,9.337,380.389,13.147,403.079,20.787z"/>
        <path style="fill:#FFD166;" d="M403.049,20.857c-12.35,24.13-26.82,48.18-43.39,71.72c-10.49,14.9-21.44,29.08-32.78,42.48 c-17.43,20.64-35.74,39.46-54.58,56.32l-58.27-6.33l15.29,40.75c-30.46,21.68-61.53,38.2-91.79,48.93 c6.15-32.96,17.96-67.17,35.61-100.51C229.279,68.127,326.009,6.047,403.049,20.857z"/>
        <path style="fill:#19363C;" d="M326.879,135.057v249.71h-206.45c-6.73,0-12.48,4.55-14.35,11.01 c-4.78,16.49-19.98,28.54-38.01,28.54c-21.84,0-39.55-17.71-39.55-39.55V79.907c0-8.28,6.72-15,15-15h151.32h1.48 c-42.67,39.33-68.69,96.27-66.81,158.84c0.53,17.67,3.25,34.77,7.91,51.03c0.02,0.07,0.04,0.15,0.06,0.23 c0.02-0.09,0.04-0.18,0.05-0.28c30.26-10.73,61.33-27.25,91.79-48.93l-15.29-40.75l58.27,6.33 C291.139,174.517,309.449,155.697,326.879,135.057z M132.609,336.287l4.87-61.27 C133.559,296.147,131.949,316.747,132.609,336.287z"/>
        <path style="fill:#FFFFFF;" d="M137.479,275.017l-4.87,61.27C131.949,316.747,133.559,296.147,137.479,275.017z"/>
      </g>
    </g>
  </g>
</g>
</svg>
