<svg width="601" height="600" viewBox="0 0 601 600" fill="none" xmlns="http://www.w3.org/2000/svg">
<path d="M600.743 0.0226272C478.416 4.51452 379.205 30.9343 303.357 71.6716L265.478 134.906L259.09 98.8546C245.55 108.361 233 118.383 221.438 128.898L202.54 186.782L196.049 154.434C139.911 217.175 114.81 293.045 121.137 370.581H139.705C172.596 353.563 204.539 330.023 236.153 302.819L197.78 304.815L198.13 304.424L267.024 275.142C327.263 219.13 387.13 153.22 451.181 97.661L419.671 90.9939L492.522 63.8933C526.983 37.6492 562.823 15.3933 600.743 0.0226272Z" fill="#19363C" fill-opacity="0.3"/>
<path d="M291.877 69.6882L256.153 129.416L250.128 95.3637C237.358 104.343 225.521 113.809 214.617 123.741L196.794 178.416L190.672 147.862C137.727 207.123 120.01 358.126 120.02 352.022C114.827 399.591 120.01 437.6 125.193 451.421C121.055 380.932 131.695 355.785 137.532 352.022C134.311 352.022 198.68 313.713 228.495 288.018L192.304 289.903L192.635 289.534L257.611 261.876C314.424 208.97 370.887 146.715 431.295 94.2364L401.577 87.939L470.285 62.3412C502.786 37.5524 536.588 16.5306 572.351 2.01234C456.981 6.25515 363.412 31.2098 291.877 69.6882Z" fill="#19363C"/>
<path fill-rule="evenodd" clip-rule="evenodd" d="M572.404 2.0104L572.351 2.01234L572.404 1.99097V2.0104Z" fill="#19363C"/>
<path d="M120.02 352.022H30.5736V411.556H79.534L26.9972 457.679L0 560.75L17.6289 579.992H232.557L250.186 560.75L223.189 457.679L173.47 411.556H216.347V352.022H137.532C131.695 355.785 121.055 380.932 125.193 451.421C120.01 437.6 114.827 399.591 120.02 352.022Z" fill="url(#paint0_linear_1312_2281)"/>
<path d="M118.909 353.022C113.907 400.155 119.038 437.856 124.257 451.772L126.191 451.363C124.125 416.168 125.752 392.345 128.605 376.881C130.032 369.148 131.762 363.528 133.476 359.631C135.1 355.937 136.661 353.902 137.844 353.022H215.348V410.556H170.922L172.79 412.289L222.295 458.214L249.08 560.476L232.118 578.992H18.0684L1.10547 560.476L27.8867 458.228L80.1934 412.307L82.1885 410.556H31.5732V353.022H118.909ZM566.81 3.23315C532.891 17.6659 500.742 37.8643 469.797 61.4548L401.228 87.0017L398.002 88.2039L401.369 88.9177L429.128 94.7986C399.432 120.704 370.687 148.929 342.397 177.188C313.663 205.891 285.403 234.619 257.057 261.024L192.243 288.614L192.038 288.701L191.89 288.867L191.56 289.236L189.957 291.027L192.356 290.902L225.587 289.17C210.687 301.621 188.543 316.657 170.075 328.821C160.404 335.192 151.666 340.824 145.643 344.801C142.62 346.796 140.236 348.405 138.705 349.517C137.95 350.066 137.361 350.524 137.007 350.861C136.915 350.948 136.824 351.04 136.745 351.135C136.68 351.214 136.571 351.355 136.498 351.538C134.926 352.779 133.251 355.173 131.645 358.825C129.851 362.904 128.084 368.682 126.639 376.517C123.988 390.886 122.403 412.249 123.754 442.902C119.662 425.378 116.67 392.405 120.965 352.596C121.002 352.516 121.021 352.455 121.023 352.447C121.083 352.262 121.147 351.934 121.214 351.564C121.358 350.767 121.577 349.416 121.869 347.592C122.456 343.931 123.353 338.307 124.595 331.203C127.079 316.993 130.942 296.863 136.458 274.695C141.974 252.525 149.139 228.334 158.222 205.998C167 184.409 177.548 164.609 190.089 150.043L195.813 178.612L196.562 182.351L197.745 178.725L215.485 124.303C225.936 114.799 237.247 105.724 249.418 97.0916L255.169 129.591L255.636 132.23L257.012 129.929L292.593 70.4392C362.78 32.7416 454.25 8.05433 566.81 3.23315Z" stroke="#19363C" stroke-width="2"/>
<defs>
<linearGradient id="paint0_linear_1312_2281" x1="109.644" y1="446.238" x2="109.644" y2="441.055" gradientUnits="userSpaceOnUse">
<stop stop-color="#19363C"/>
<stop offset="0.0001" stop-color="#F8F6F2"/>
</linearGradient>
</defs>
</svg>
