<svg width="98" height="30" viewBox="0 0 98 30" fill="none" xmlns="http://www.w3.org/2000/svg">
<path d="M31.28 24.76L31.64 24.86C31.5333 25.5933 31.3667 26.22 31.14 26.74C30.9133 27.2733 30.62 27.6867 30.26 27.98C29.98 28.2067 29.6133 28.3933 29.16 28.54C28.72 28.6867 28.2267 28.76 27.68 28.76C26.9467 28.76 26.2267 28.6467 25.52 28.42C24.8267 28.1933 24.12 27.9133 23.4 27.58C22.68 27.26 21.92 26.9467 21.12 26.64C21.0267 26.6133 20.9333 26.58 20.84 26.54C20.76 26.5133 20.6933 26.5 20.64 26.5C20.3867 26.62 20.1067 26.72 19.8 26.8C19.5067 26.88 19.2267 26.92 18.96 26.92C18.6933 26.92 18.4667 26.88 18.28 26.8C18.1067 26.72 18.02 26.5867 18.02 26.4C18.02 26.04 18.3867 25.86 19.12 25.86C19.5867 25.86 20.0933 25.9533 20.64 26.14C21.1333 26.0067 21.5533 25.8533 21.9 25.68C22.26 25.52 22.6267 25.3667 23 25.22C23.3867 25.0733 23.8533 24.98 24.4 24.94L24.42 25.26C23.9933 25.3 23.6267 25.3733 23.32 25.48C23.0267 25.6 22.7267 25.7267 22.42 25.86C22.1133 25.9933 21.7533 26.12 21.34 26.24C22.2867 26.3067 23.1667 26.3733 23.98 26.44C24.7933 26.52 25.5467 26.5667 26.24 26.58C26.9333 26.6067 27.56 26.58 28.12 26.5C28.9467 26.4067 29.6 26.2267 30.08 25.96C30.56 25.6933 30.96 25.2933 31.28 24.76ZM23.94 10.56C25.3533 10.56 26.5867 10.8467 27.64 11.42C28.7067 11.9933 29.5333 12.82 30.12 13.9C30.7067 14.9667 31 16.2667 31 17.8C31 19.2933 30.7 20.6 30.1 21.72C29.5 22.84 28.66 23.7133 27.58 24.34C26.5133 24.9667 25.2933 25.28 23.92 25.28C22.5067 25.28 21.2667 24.9933 20.2 24.42C19.1467 23.8467 18.3267 23.02 17.74 21.94C17.1533 20.86 16.86 19.56 16.86 18.04C16.86 16.5467 17.16 15.24 17.76 14.12C18.3733 13 19.2067 12.1267 20.26 11.5C21.3267 10.8733 22.5533 10.56 23.94 10.56ZM23.86 10.92C23.1133 10.92 22.46 11.22 21.9 11.82C21.3533 12.42 20.9267 13.2467 20.62 14.3C20.3267 15.3533 20.18 16.5733 20.18 17.96C20.18 19.3733 20.3467 20.6067 20.68 21.66C21.0267 22.7 21.4867 23.5067 22.06 24.08C22.6467 24.64 23.2933 24.92 24 24.92C24.7467 24.92 25.3933 24.62 25.94 24.02C26.5 23.42 26.9267 22.5933 27.22 21.54C27.5267 20.4733 27.68 19.2533 27.68 17.88C27.68 16.4533 27.5067 15.22 27.16 14.18C26.8267 13.14 26.3667 12.34 25.78 11.78C25.2067 11.2067 24.5667 10.92 23.86 10.92ZM42.2994 14.44V22.82C42.2994 23.42 42.3927 23.8667 42.5794 24.16C42.766 24.44 43.0994 24.58 43.5794 24.58V25C43.166 24.96 42.7527 24.94 42.3394 24.94C41.7794 24.94 41.2594 24.96 40.7794 25C40.2994 25.04 39.846 25.1133 39.4194 25.22V23.42C39.0994 24.0867 38.6527 24.5667 38.0794 24.86C37.5194 25.14 36.8927 25.28 36.1994 25.28C35.6394 25.28 35.186 25.2067 34.8394 25.06C34.4927 24.9133 34.2194 24.7267 34.0194 24.5C33.7927 24.2467 33.6327 23.9133 33.5394 23.5C33.446 23.0867 33.3994 22.5533 33.3994 21.9V16.84C33.3994 16.24 33.306 15.8 33.1194 15.52C32.946 15.2267 32.6127 15.08 32.1194 15.08V14.66C32.546 14.7 32.9594 14.72 33.3594 14.72C33.9194 14.72 34.4394 14.7 34.9194 14.66C35.4127 14.6067 35.866 14.5333 36.2794 14.44V22.72C36.2794 23.0533 36.306 23.3467 36.3594 23.6C36.426 23.8533 36.546 24.0533 36.7194 24.2C36.8927 24.3333 37.146 24.4 37.4794 24.4C37.8394 24.4 38.1594 24.3 38.4394 24.1C38.7327 23.9 38.966 23.6267 39.1394 23.28C39.326 22.92 39.4194 22.52 39.4194 22.08V16.84C39.4194 16.24 39.326 15.8 39.1394 15.52C38.966 15.2267 38.6327 15.08 38.1394 15.08V14.66C38.566 14.7 38.9794 14.72 39.3794 14.72C39.9394 14.72 40.4594 14.7 40.9394 14.66C41.4327 14.6067 41.886 14.5333 42.2994 14.44ZM47.0683 9.5C47.6283 9.5 48.0683 9.64 48.3883 9.92C48.7216 10.1867 48.8883 10.56 48.8883 11.04C48.8883 11.52 48.7216 11.9 48.3883 12.18C48.0683 12.4467 47.6283 12.58 47.0683 12.58C46.5083 12.58 46.0616 12.4467 45.7283 12.18C45.4083 11.9 45.2483 11.52 45.2483 11.04C45.2483 10.56 45.4083 10.1867 45.7283 9.92C46.0616 9.64 46.5083 9.5 47.0683 9.5ZM48.6283 14.44V23.14C48.6283 23.7 48.7216 24.08 48.9083 24.28C49.1083 24.48 49.4416 24.58 49.9083 24.58V25C49.6683 24.9867 49.2949 24.9733 48.7883 24.96C48.2816 24.9333 47.7683 24.92 47.2483 24.92C46.7283 24.92 46.2016 24.9333 45.6683 24.96C45.1349 24.9733 44.7349 24.9867 44.4683 25V24.58C44.9349 24.58 45.2616 24.48 45.4483 24.28C45.6483 24.08 45.7483 23.7 45.7483 23.14V16.84C45.7483 16.24 45.6549 15.8 45.4683 15.52C45.2949 15.2267 44.9616 15.08 44.4683 15.08V14.66C44.8949 14.7 45.3083 14.72 45.7083 14.72C46.2683 14.72 46.7883 14.7 47.2683 14.66C47.7616 14.6067 48.2149 14.5333 48.6283 14.44ZM54.8569 9.34V23.14C54.8569 23.7 54.9502 24.08 55.1369 24.28C55.3369 24.48 55.6702 24.58 56.1369 24.58V25C55.8835 24.9867 55.5035 24.9733 54.9969 24.96C54.4902 24.9333 53.9769 24.92 53.4569 24.92C52.9369 24.92 52.4102 24.9333 51.8769 24.96C51.3569 24.9733 50.9635 24.9867 50.6969 25V24.58C51.1635 24.58 51.4902 24.48 51.6769 24.28C51.8769 24.08 51.9769 23.7 51.9769 23.14V11.74C51.9769 11.14 51.8835 10.7 51.6969 10.42C51.5235 10.1267 51.1902 9.98 50.6969 9.98V9.56C51.1235 9.6 51.5369 9.62 51.9369 9.62C52.4835 9.62 53.0035 9.6 53.4969 9.56C53.9902 9.50667 54.4435 9.43333 54.8569 9.34ZM61.185 9.34V23.14C61.185 23.7 61.2783 24.08 61.465 24.28C61.665 24.48 61.9983 24.58 62.465 24.58V25C62.2117 24.9867 61.8317 24.9733 61.325 24.96C60.8183 24.9333 60.305 24.92 59.785 24.92C59.265 24.92 58.7383 24.9333 58.205 24.96C57.685 24.9733 57.2917 24.9867 57.025 25V24.58C57.4917 24.58 57.8183 24.48 58.005 24.28C58.205 24.08 58.305 23.7 58.305 23.14V11.74C58.305 11.14 58.2117 10.7 58.025 10.42C57.8517 10.1267 57.5183 9.98 57.025 9.98V9.56C57.4517 9.6 57.865 9.62 58.265 9.62C58.8117 9.62 59.3317 9.6 59.825 9.56C60.3183 9.50667 60.7717 9.43333 61.185 9.34ZM67.3759 11.38V14.66H69.7359V15.06H67.3759V23.14C67.3759 23.54 67.4493 23.8267 67.5959 24C67.7426 24.16 67.9626 24.24 68.2559 24.24C68.4959 24.24 68.7359 24.1533 68.9759 23.98C69.2159 23.7933 69.4293 23.48 69.6159 23.04L69.9559 23.22C69.7426 23.82 69.4159 24.3133 68.9759 24.7C68.5493 25.0867 67.9626 25.28 67.2159 25.28C66.7759 25.28 66.3893 25.22 66.0559 25.1C65.7226 24.9933 65.4426 24.8267 65.2159 24.6C64.9226 24.3067 64.7293 23.9467 64.6359 23.52C64.5426 23.08 64.4959 22.5133 64.4959 21.82V15.06H62.8159V14.66H64.4959V12.02C65.0559 12.02 65.5693 11.9733 66.0359 11.88C66.5159 11.7733 66.9626 11.6067 67.3759 11.38ZM72.9472 9.5C73.5072 9.5 73.9472 9.64 74.2672 9.92C74.6005 10.1867 74.7672 10.56 74.7672 11.04C74.7672 11.52 74.6005 11.9 74.2672 12.18C73.9472 12.4467 73.5072 12.58 72.9472 12.58C72.3872 12.58 71.9405 12.4467 71.6072 12.18C71.2872 11.9 71.1272 11.52 71.1272 11.04C71.1272 10.56 71.2872 10.1867 71.6072 9.92C71.9405 9.64 72.3872 9.5 72.9472 9.5ZM74.5072 14.44V23.14C74.5072 23.7 74.6005 24.08 74.7872 24.28C74.9872 24.48 75.3205 24.58 75.7872 24.58V25C75.5472 24.9867 75.1739 24.9733 74.6672 24.96C74.1605 24.9333 73.6472 24.92 73.1272 24.92C72.6072 24.92 72.0805 24.9333 71.5472 24.96C71.0139 24.9733 70.6139 24.9867 70.3472 25V24.58C70.8139 24.58 71.1405 24.48 71.3272 24.28C71.5272 24.08 71.6272 23.7 71.6272 23.14V16.84C71.6272 16.24 71.5339 15.8 71.3472 15.52C71.1739 15.2267 70.8405 15.08 70.3472 15.08V14.66C70.7739 14.7 71.1872 14.72 71.5872 14.72C72.1472 14.72 72.6672 14.7 73.1472 14.66C73.6405 14.6067 74.0939 14.5333 74.5072 14.44ZM80.7358 14.44V26.64C80.7358 27.2667 80.8958 27.68 81.2158 27.88C81.5358 28.0933 81.9758 28.2 82.5358 28.2V28.62C82.1891 28.6067 81.7091 28.5867 81.0958 28.56C80.4958 28.5467 79.8558 28.54 79.1758 28.54C78.6824 28.54 78.1958 28.5467 77.7158 28.56C77.2491 28.5867 76.8958 28.6067 76.6558 28.62V28.2C77.0958 28.2 77.4024 28.1067 77.5758 27.92C77.7624 27.7333 77.8558 27.3733 77.8558 26.84V16.84C77.8558 16.24 77.7624 15.8 77.5758 15.52C77.3891 15.2267 77.0558 15.08 76.5758 15.08V14.66C77.0024 14.7 77.4158 14.72 77.8158 14.72C78.3624 14.72 78.8824 14.7 79.3758 14.66C79.8691 14.6067 80.3224 14.5333 80.7358 14.44ZM83.8358 14.38C84.5158 14.38 85.1224 14.5667 85.6558 14.94C86.1891 15.3 86.6158 15.8533 86.9358 16.6C87.2558 17.3333 87.4158 18.2533 87.4158 19.36C87.4158 20.3333 87.3024 21.1867 87.0758 21.92C86.8624 22.6533 86.5491 23.2733 86.1358 23.78C85.7358 24.2733 85.2491 24.6467 84.6758 24.9C84.1158 25.1533 83.4824 25.28 82.7758 25.28C82.2558 25.28 81.7824 25.1867 81.3558 25C80.9291 24.8267 80.6024 24.5733 80.3758 24.24L80.5758 23.98C80.7091 24.22 80.8958 24.4067 81.1358 24.54C81.3891 24.6733 81.6758 24.74 81.9958 24.74C82.5958 24.74 83.0691 24.54 83.4158 24.14C83.7624 23.7267 84.0091 23.1533 84.1558 22.42C84.3158 21.6733 84.3958 20.7867 84.3958 19.76C84.3958 18.6133 84.3224 17.7133 84.1758 17.06C84.0291 16.4067 83.8291 15.94 83.5758 15.66C83.3224 15.38 83.0158 15.24 82.6558 15.24C82.1758 15.24 81.7358 15.4267 81.3358 15.8C80.9491 16.1733 80.7291 16.7067 80.6758 17.4L80.5758 16.7C80.8158 15.94 81.2224 15.3667 81.7958 14.98C82.3824 14.58 83.0624 14.38 83.8358 14.38ZM92.608 14.38C93.168 14.38 93.6546 14.4533 94.068 14.6C94.4946 14.7333 94.8013 14.8667 94.988 15C95.4413 15.3067 95.7213 15.1067 95.828 14.4H96.248C96.2213 14.7733 96.2013 15.2333 96.188 15.78C96.1746 16.3133 96.168 17.0267 96.168 17.92H95.748C95.6813 17.4267 95.5546 16.94 95.368 16.46C95.1813 15.98 94.908 15.5867 94.548 15.28C94.2013 14.9733 93.748 14.82 93.188 14.82C92.8013 14.82 92.4746 14.9333 92.208 15.16C91.9413 15.3733 91.808 15.6867 91.808 16.1C91.808 16.5 91.928 16.8533 92.168 17.16C92.408 17.4533 92.7146 17.74 93.088 18.02C93.4746 18.2867 93.8746 18.5733 94.288 18.88C94.728 19.2133 95.128 19.5467 95.488 19.88C95.848 20.2 96.1346 20.5533 96.348 20.94C96.5613 21.3267 96.668 21.7867 96.668 22.32C96.668 22.92 96.4946 23.4467 96.148 23.9C95.8013 24.34 95.3413 24.68 94.768 24.92C94.208 25.16 93.5813 25.28 92.888 25.28C92.488 25.28 92.128 25.24 91.808 25.16C91.5013 25.08 91.2346 24.98 91.008 24.86C90.8346 24.78 90.668 24.7067 90.508 24.64C90.3613 24.56 90.2213 24.4933 90.088 24.44C89.9546 24.4 89.8346 24.4467 89.728 24.58C89.6346 24.7133 89.5613 24.9 89.508 25.14H89.088C89.1146 24.7133 89.1346 24.1933 89.148 23.58C89.1613 22.9667 89.168 22.1533 89.168 21.14H89.588C89.668 21.86 89.8146 22.5 90.028 23.06C90.2413 23.6067 90.528 24.04 90.888 24.36C91.2613 24.6667 91.728 24.82 92.288 24.82C92.5146 24.82 92.7346 24.7733 92.948 24.68C93.1613 24.5867 93.3346 24.4333 93.468 24.22C93.6146 24.0067 93.688 23.7333 93.688 23.4C93.688 22.8133 93.4946 22.3267 93.108 21.94C92.7346 21.5533 92.2546 21.1333 91.668 20.68C91.2413 20.3333 90.8346 19.9933 90.448 19.66C90.0746 19.3133 89.768 18.94 89.528 18.54C89.288 18.1267 89.168 17.66 89.168 17.14C89.168 16.54 89.328 16.0333 89.648 15.62C89.968 15.2067 90.388 14.9 90.908 14.7C91.4413 14.4867 92.008 14.38 92.608 14.38Z" fill="#19363C"/>
<path d="M30.0371 0.00113136C23.9208 0.225726 18.9602 1.54671 15.1678 3.58358L13.2739 6.74532L12.9545 4.94273C12.2775 5.41807 11.65 5.91913 11.0719 6.44489L10.127 9.33912L9.8024 7.72172C6.99553 10.8588 5.74048 14.6522 6.05682 18.5291H6.98523C8.62978 17.6782 10.2269 16.5011 11.8076 15.141L9.88896 15.2408L9.90648 15.2212L13.3512 13.7571C16.3631 10.9565 19.3565 7.66102 22.559 4.88305L20.9835 4.5497L24.6261 3.19466C26.3491 1.88246 28.1411 0.769664 30.0371 0.00113136Z" fill="#19363C" fill-opacity="0.3"/>
<path d="M14.5939 3.48447L12.8077 6.47088L12.5064 4.76825C11.8679 5.21723 11.2761 5.69051 10.7309 6.18711L9.83971 8.92085L9.53359 7.39314C6.88634 10.3562 6.0005 17.9064 6.00101 17.6012C5.74135 19.9796 6.0005 21.88 6.25965 22.5711C6.05274 19.0466 6.58475 17.7893 6.87662 17.6012C6.71554 17.6012 9.93398 15.6857 11.4248 14.401L9.61522 14.4952L9.63174 14.4768L12.8805 13.0939C15.7212 10.4486 18.5443 7.3358 21.5648 4.71188L20.0788 4.39701L23.5142 3.11712C25.1393 1.87768 26.8294 0.826593 28.6176 0.100678C22.8491 0.312818 18.1706 1.56055 14.5939 3.48447Z" fill="#19363C"/>
<path fill-rule="evenodd" clip-rule="evenodd" d="M28.6202 0.100581L28.6176 0.100678L28.6202 0.0996094V0.100581Z" fill="#19363C"/>
<path d="M6.00101 17.6012H1.52868V20.5779H3.9767L1.34986 22.884L0 28.0376L0.881444 28.9997H11.6279L12.5093 28.0376L11.1594 22.884L8.67352 20.5779H10.8174V17.6012H6.87662C6.58475 17.7893 6.05274 19.0466 6.25965 22.5711C6.0005 21.88 5.74135 19.9796 6.00101 17.6012Z" fill="url(#paint0_linear_563_3593)"/>
<path d="M5.8584 17.7305C5.62305 20.0525 5.87505 21.9129 6.13867 22.6162L6.38867 22.5635C6.2856 20.8078 6.36766 19.6233 6.50879 18.8584C6.57937 18.4759 6.66456 18.2013 6.74707 18.0137C6.81681 17.8551 6.88027 17.7702 6.92285 17.7305H10.6875V20.4482H8.34375L8.58496 20.6729L11.043 22.9521L12.3652 28.002L11.5703 28.8701H0.938477L0.142578 28.001L1.46484 22.9541L4.0625 20.6748L4.32031 20.4482H1.6582V17.7305H5.8584ZM27.9072 0.264648C26.3538 0.972388 24.8751 1.91659 23.4492 3.00293L20.0332 4.27539L19.6152 4.43164L20.0518 4.52344L21.2852 4.78516C19.8406 6.05348 18.4401 7.42759 17.0635 8.80273C15.6293 10.2354 14.2204 11.6669 12.8076 12.9834L9.58105 14.3574L9.55469 14.3691L9.53516 14.3906L9.51855 14.4092L9.31152 14.6406L9.62207 14.625L11.04 14.5498C10.3086 15.1364 9.30888 15.8158 8.45996 16.375C7.97936 16.6916 7.53748 16.9763 7.23828 17.1738C7.08746 17.2734 6.96682 17.3543 6.88867 17.4111C6.85109 17.4385 6.81782 17.4646 6.7959 17.4854C6.79011 17.4909 6.78297 17.4979 6.77637 17.5059C6.77303 17.5099 6.76708 17.5183 6.76074 17.5293C6.67216 17.6061 6.58674 17.7342 6.50977 17.9092C6.41691 18.1203 6.32694 18.4157 6.25391 18.8115C6.15944 19.3235 6.09267 20.0088 6.08496 20.9072C6.00613 20.0356 5.99099 18.9119 6.12695 17.6465C6.13181 17.6313 6.13567 17.6094 6.13867 17.5928C6.14606 17.552 6.15734 17.4833 6.17188 17.3926C6.20121 17.2096 6.24662 16.9287 6.30859 16.5742C6.4326 15.8649 6.62521 14.8599 6.90039 13.7539C7.17563 12.6477 7.53224 11.4421 7.98438 10.3301C8.39635 9.3169 8.88651 8.38886 9.45898 7.68359L9.71289 8.94629L9.80957 9.43066L9.96289 8.96094L10.8428 6.26074C11.3289 5.81969 11.853 5.3977 12.4141 4.99414L12.6797 6.49316L12.7402 6.83594L12.9189 6.53711L14.6855 3.58203C18.0888 1.75828 22.4985 0.548584 27.9072 0.264648Z" stroke="#19363C" stroke-width="0.259153"/>
<defs>
<linearGradient id="paint0_linear_563_3593" x1="5.4822" y1="22.312" x2="5.4822" y2="22.0528" gradientUnits="userSpaceOnUse">
<stop stop-color="#19363C"/>
<stop offset="1" stop-color="#F8F6F2"/>
</linearGradient>
</defs>
</svg>
